<?xml version="1.0" encoding="utf-8"?>
<!-- Generator: Adobe Illustrator 21.1.0, SVG Export Plug-In . SVG Version: 6.00 Build 0)  -->
<svg version="1.1" id="Layer_1" xmlns="http://www.w3.org/2000/svg" xmlns:xlink="http://www.w3.org/1999/xlink" x="0px" y="0px"
	 viewBox="0 0 109.2 70" style="enable-background:new 0 0 109.2 70;" xml:space="preserve">
<style type="text/css">
	.st0{fill:#F58220;}
</style>
<g>
	<path class="st0" d="M10.8,44.9h20.6c0.6,0,1-0.4,1-1s-0.4-1-1-1H10.8c-0.6,0-1,0.4-1,1S10.3,44.9,10.8,44.9z"/>
	<path class="st0" d="M59.9,56.1H10.8c-0.6,0-1,0.4-1,1s0.4,1,1,1h49.1c0.6,0,1-0.4,1-1S60.5,56.1,59.9,56.1z"/>
	<path class="st0" d="M59.9,49.5H10.8c-0.6,0-1,0.4-1,1s0.4,1,1,1h49.1c0.6,0,1-0.4,1-1S60.5,49.5,59.9,49.5z"/>
	<path class="st0" d="M101.1,3h-93c-3.9,0-7,3.1-7,7V60c0,3.9,3.1,7,7,7h93c3.9,0,7-3.1,7-7V10C108.1,6.2,105,3,101.1,3z M106.1,10
		v17.1H86.8c3.1-1.3,5.9-2.7,5.9-6.1c0-1.7-0.8-3.4-2.1-4.5c-1.3-1.1-3-1.4-4.8-1.1c-2.3,0.5-4.3,3-5.6,5.7V5h20.8
		C103.9,5,106.1,7.3,106.1,10z M73.1,25.5c-3.2-1.4-5.1-2.3-5.1-4.4c0-1.2,0.5-2.3,1.3-2.9c0.5-0.4,1.2-0.8,2.2-0.8
		c0.3,0,0.6,0,0.9,0.1c2.8,0.6,5.6,6.7,5.6,9.2c0,0.1,0,0.1,0,0.2C77.8,27,76.9,27.1,73.1,25.5z M80.7,26.7c0-2.5,2.8-8.6,5.6-9.2
		c0.3-0.1,0.6-0.1,0.9-0.1c1,0,1.7,0.4,2.2,0.8c0.8,0.7,1.3,1.8,1.3,2.9c0,2.1-1.8,3-5.1,4.4c-3.9,1.7-4.8,1.5-4.9,1.4
		C80.7,26.9,80.7,26.9,80.7,26.7z M8.1,5h70.2V21c-1.3-2.6-3.2-5-5.5-5.4c-1.8-0.4-3.5,0-4.8,1.1c-1.3,1.1-2.1,2.7-2.1,4.5
		c0,3.4,2.8,4.7,5.9,6.1H3.1V10C3.1,7.3,5.3,5,8.1,5z M3.1,60V29.2h73.7l-7.3,9.3c-0.3,0.4-0.3,1.1,0.2,1.4c0.2,0.1,0.4,0.2,0.6,0.2
		c0.3,0,0.6-0.1,0.8-0.4l7.2-9.2V65H8.1C5.3,65,3.1,62.7,3.1,60z M101.1,65H80.3V30.3l7.1,9.1c0.2,0.3,0.5,0.4,0.8,0.4
		c0.2,0,0.4-0.1,0.6-0.2c0.4-0.3,0.5-1,0.2-1.4l-7.1-9.1h24.2V60C106.1,62.7,103.9,65,101.1,65z"/>
</g>
</svg>
