<?xml version="1.0" encoding="utf-8"?>
<!-- Generator: Adobe Illustrator 21.1.0, SVG Export Plug-In . SVG Version: 6.00 Build 0)  -->
<svg version="1.1" id="Layer_1" xmlns="http://www.w3.org/2000/svg" xmlns:xlink="http://www.w3.org/1999/xlink" x="0px" y="0px"
	 viewBox="0 0 70 70" style="enable-background:new 0 0 70 70;" xml:space="preserve">
<style type="text/css">
	.st0{fill:#F58220;}
</style>
<path class="st0" d="M62,16.1H51.6c1.8-1.5,2.9-3.6,2.9-5.9c0-4.9-4.6-9-10.2-9c-2,0-4,0.9-5.6,2.6c-1.5,1.6-2.7,3.7-3.5,5.9
	c-0.8-2.2-2-4.3-3.5-5.9c-1.6-1.7-3.6-2.6-5.6-2.6c-5.6,0-10.2,4-10.2,9c0,2.3,1,4.4,2.9,5.9H8.1c-0.7,0-1.2,0.6-1.2,1.2v10
	c0,0.7,0.6,1.2,1.2,1.2h2.5v37.3c0,0.7,0.6,1.2,1.2,1.2h46.4c0.7,0,1.2-0.6,1.2-1.2V28.6H62c0.7,0,1.2-0.6,1.2-1.2v-10
	C63.3,16.6,62.7,16.1,62,16.1z M40.4,5.5c1.2-1.2,2.5-1.8,3.8-1.8c4.3,0,7.8,2.9,7.8,6.5c0,2.2-1.3,4-3.5,5
	c-1.2,0.6-2.7,0.9-4.2,0.9c0,0-0.1,0-0.1,0h-7.6c0-0.1,0-0.2,0-0.3C36.4,13.3,37.7,8.3,40.4,5.5z M26.1,16.1c-1.5,0-3-0.3-4.2-0.9
	c-2.3-1.1-3.5-2.9-3.5-5c0-3.6,3.5-6.5,7.8-6.5c1.4,0,2.6,0.6,3.8,1.8c2.7,2.8,4,7.8,3.9,10.3c0,0.1,0,0.2,0,0.3h-7.6
	C26.2,16.1,26.1,16.1,26.1,16.1z M9.3,18.6h24.4V26H11.9c-0.1,0-0.3,0-0.4,0.1H9.3V18.6z M13.1,28.6h20.6v36.1H13.1V28.6z M57,64.7
	H36.2V28.6H57V64.7z M60.8,26.1h-2.1c-0.1,0-0.3-0.1-0.4-0.1h-22v-7.4h24.5V26.1z"/>
</svg>
