<?xml version="1.0" encoding="utf-8"?>
<!-- Generator: Adobe Illustrator 21.1.0, SVG Export Plug-In . SVG Version: 6.00 Build 0)  -->
<svg version="1.1" id="Layer_1" xmlns="http://www.w3.org/2000/svg" xmlns:xlink="http://www.w3.org/1999/xlink" x="0px" y="0px"
	 viewBox="0 0 70 70" style="enable-background:new 0 0 70 70;" xml:space="preserve">
<style type="text/css">
	.st0{fill:#F58220;}
</style>
<g>
	<path class="st0" d="M64.9,22.5c-5.2-12.2-17-20-30.1-20C17.5,2.6,3.3,16.1,2.4,33.2l0,0.2l2.5,0.1l0-0.2C5.7,17.5,18.9,5,34.8,5
		c12,0,22.9,7.2,27.7,18.3l-3.8,1.2l7.1,4.7l3.1-7.9L64.9,22.5z"/>
	<path class="st0" d="M64.9,36.4l0,0.2C63.9,52.5,50.7,65,34.8,65c-12.1,0-22.9-7.2-27.6-18.3l3.8-1.4l-7.2-4.3l-2.9,8l3.9-1.4
		c5.1,12.2,16.8,20,29.9,20C52,67.5,66.3,54,67.3,36.8l0-0.2L64.9,36.4z"/>
</g>
</svg>
